<mxfile host="app.diagrams.net" agent="Mozilla/5.0 (Windows NT 10.0; Win64; x64) AppleWebKit/537.36 (KHTML, like Gecko) Chrome/140.0.0.0 Safari/537.36" version="28.2.3">
  <diagram name="Page-1" id="GzHOlXYhTdbZ7JZc0nFS">
    <mxGraphModel dx="1042" dy="510" grid="1" gridSize="10" guides="1" tooltips="1" connect="1" arrows="1" fold="1" page="1" pageScale="1" pageWidth="850" pageHeight="1100" math="0" shadow="0">
      <root>
        <mxCell id="0" />
        <mxCell id="1" parent="0" />
        <mxCell id="FQLYOBBRlGdK2Ho9bDlK-7" value="" style="edgeStyle=orthogonalEdgeStyle;rounded=0;orthogonalLoop=1;jettySize=auto;html=1;" edge="1" parent="1" target="FQLYOBBRlGdK2Ho9bDlK-6">
          <mxGeometry relative="1" as="geometry">
            <mxPoint x="420" y="390" as="sourcePoint" />
          </mxGeometry>
        </mxCell>
        <mxCell id="FQLYOBBRlGdK2Ho9bDlK-9" value="" style="edgeStyle=orthogonalEdgeStyle;rounded=0;orthogonalLoop=1;jettySize=auto;html=1;" edge="1" parent="1" source="FQLYOBBRlGdK2Ho9bDlK-6" target="FQLYOBBRlGdK2Ho9bDlK-8">
          <mxGeometry relative="1" as="geometry" />
        </mxCell>
        <mxCell id="FQLYOBBRlGdK2Ho9bDlK-6" value="DEVELOP" style="ellipse;whiteSpace=wrap;html=1;" vertex="1" parent="1">
          <mxGeometry x="360" y="470" width="120" height="80" as="geometry" />
        </mxCell>
        <mxCell id="FQLYOBBRlGdK2Ho9bDlK-11" value="" style="edgeStyle=orthogonalEdgeStyle;rounded=0;orthogonalLoop=1;jettySize=auto;html=1;" edge="1" parent="1" source="FQLYOBBRlGdK2Ho9bDlK-8" target="FQLYOBBRlGdK2Ho9bDlK-10">
          <mxGeometry relative="1" as="geometry" />
        </mxCell>
        <mxCell id="FQLYOBBRlGdK2Ho9bDlK-8" value="BUILT" style="ellipse;whiteSpace=wrap;html=1;" vertex="1" parent="1">
          <mxGeometry x="360" y="630" width="120" height="80" as="geometry" />
        </mxCell>
        <mxCell id="FQLYOBBRlGdK2Ho9bDlK-13" value="" style="edgeStyle=orthogonalEdgeStyle;rounded=0;orthogonalLoop=1;jettySize=auto;html=1;" edge="1" parent="1" source="FQLYOBBRlGdK2Ho9bDlK-10" target="FQLYOBBRlGdK2Ho9bDlK-12">
          <mxGeometry relative="1" as="geometry" />
        </mxCell>
        <mxCell id="FQLYOBBRlGdK2Ho9bDlK-10" value="TEST" style="ellipse;whiteSpace=wrap;html=1;" vertex="1" parent="1">
          <mxGeometry x="360" y="790" width="120" height="80" as="geometry" />
        </mxCell>
        <mxCell id="FQLYOBBRlGdK2Ho9bDlK-15" value="" style="edgeStyle=orthogonalEdgeStyle;rounded=0;orthogonalLoop=1;jettySize=auto;html=1;" edge="1" parent="1" source="FQLYOBBRlGdK2Ho9bDlK-12" target="FQLYOBBRlGdK2Ho9bDlK-14">
          <mxGeometry relative="1" as="geometry" />
        </mxCell>
        <mxCell id="FQLYOBBRlGdK2Ho9bDlK-12" value="RELEASE" style="ellipse;whiteSpace=wrap;html=1;" vertex="1" parent="1">
          <mxGeometry x="360" y="950" width="120" height="80" as="geometry" />
        </mxCell>
        <mxCell id="FQLYOBBRlGdK2Ho9bDlK-17" value="" style="edgeStyle=orthogonalEdgeStyle;rounded=0;orthogonalLoop=1;jettySize=auto;html=1;" edge="1" parent="1" source="FQLYOBBRlGdK2Ho9bDlK-14" target="FQLYOBBRlGdK2Ho9bDlK-16">
          <mxGeometry relative="1" as="geometry" />
        </mxCell>
        <mxCell id="FQLYOBBRlGdK2Ho9bDlK-14" value="DEPLOY" style="ellipse;whiteSpace=wrap;html=1;" vertex="1" parent="1">
          <mxGeometry x="360" y="1110" width="120" height="80" as="geometry" />
        </mxCell>
        <mxCell id="FQLYOBBRlGdK2Ho9bDlK-19" value="" style="edgeStyle=orthogonalEdgeStyle;rounded=0;orthogonalLoop=1;jettySize=auto;html=1;" edge="1" parent="1" source="FQLYOBBRlGdK2Ho9bDlK-16" target="FQLYOBBRlGdK2Ho9bDlK-18">
          <mxGeometry relative="1" as="geometry" />
        </mxCell>
        <mxCell id="FQLYOBBRlGdK2Ho9bDlK-16" value="OPERATE" style="ellipse;whiteSpace=wrap;html=1;" vertex="1" parent="1">
          <mxGeometry x="360" y="1270" width="120" height="80" as="geometry" />
        </mxCell>
        <mxCell id="FQLYOBBRlGdK2Ho9bDlK-18" value="MONITOR" style="ellipse;whiteSpace=wrap;html=1;" vertex="1" parent="1">
          <mxGeometry x="360" y="1430" width="120" height="80" as="geometry" />
        </mxCell>
        <mxCell id="FQLYOBBRlGdK2Ho9bDlK-20" value="PLAN" style="ellipse;whiteSpace=wrap;html=1;" vertex="1" parent="1">
          <mxGeometry x="360" y="300" width="120" height="90" as="geometry" />
        </mxCell>
      </root>
    </mxGraphModel>
  </diagram>
</mxfile>
